# xmcd
# 
# Track frame offsets:
#	150
#	11337
#	27237
#	43429
#	56907
#	69227
#	87213
#	99541
#	115574
#	132272
#	149569
#	166907
#	184681
#	206785
#	224127
#	241770
#	256051
#	276197
#	291365
#	309576
#
# Disc length: 4328 seconds
#
# Revision: 1
# Processed by: cddbd v1.5.1PL0 Copyright (c) Steve Scherf et al.
# Submitted via: Audio-CD-Archiv 3.00.487
#
DISCID=2d10e614
DTITLE=Various Artist - Nu Country Traxx Vol 32
DYEAR=1900
DGENRE=country
TTITLE0=Dixie Chicks/ Some Days You Gotta Dance
TTITLE1=Charlie Daniels Band/ This Ain't No Rag, It's A Flag
TTITLE2=Kenny Rogers/ Homeland
TTITLE3=Black Hawk/ Days of America
TTITLE4=Alan Jackson/ It's Alright To Be A Redneck
TTITLE5=Martina McBride/ Blessed
TTITLE6=Sammy Kershaw/ Sad City
TTITLE7=Patty Loveless with Travis Tritt/ Out Of Control Raging Fire
TTITLE8=Brian Gowan/ Who's Countin
TTITLE9=Trick Pony/ Every Other Memory
TTITLE10=Kevin Denny/ That's Just Jessie
TTITLE11=Nickel Creek/ The Lighthouse Tale
TTITLE12=Jolie and The Wanted/ Party On The Patio
TTITLE13=Maura O'Connell/ Every River
TTITLE14=Lee Greenwood/ Have Yourself A Merry Little Christmas
TTITLE15=Deana Carter/ Let It Snow
TTITLE16=Aaron Tippin/ He Said That He Was Jesus
TTITLE17=Sherrie Austin/ Winter Wonderland
TTITLE18=Montgomery Gentry/ Merry Christmas From The Family
TTITLE19=SHeDAISY/ That's What I Want For Christmas
EXTD=
EXTT0=
EXTT1=
EXTT2=
EXTT3=
EXTT4=
EXTT5=
EXTT6=
EXTT7=
EXTT8=
EXTT9=
EXTT10=
EXTT11=
EXTT12=
EXTT13=
EXTT14=
EXTT15=
EXTT16=
EXTT17=
EXTT18=
EXTT19=
PLAYORDER=
